<?xml version="1.0" standalone="no"?>
<!DOCTYPE svg PUBLIC "-//W3C//DTD SVG 20010904//EN"
 "http://www.w3.org/TR/2001/REC-SVG-20010904/DTD/svg10.dtd">
<svg version="1.0" xmlns="http://www.w3.org/2000/svg"
 width="1280.000000pt" height="935.000000pt" viewBox="0 0 1280.000000 935.000000"
 preserveAspectRatio="xMidYMid meet">
<g transform="translate(0.000000,935.000000) scale(0.100000,-0.100000)"
fill="#000000" stroke="none">
<path d="M1290 8884 c0 -442 -1 -468 -20 -512 -16 -39 -55 -175 -77 -270 -3
-14 0 -28 10 -35 13 -11 13 -25 -5 -132 -19 -114 -19 -124 -3 -202 9 -45 31
-136 50 -203 l34 -121 -5 -182 c-6 -201 -11 -250 -24 -242 -12 7 -64 111 -80
158 -6 22 -16 35 -20 30 -5 -4 -19 -46 -31 -93 -19 -73 -22 -112 -22 -280 -1
-151 3 -209 16 -255 9 -33 19 -84 22 -114 10 -87 48 -193 101 -277 l48 -79 4
-140 c7 -289 -8 -423 -92 -803 -42 -189 -76 -346 -76 -350 1 -4 14 19 31 51
16 31 34 57 39 57 12 0 12 3 -4 -100 -8 -47 -13 -86 -11 -88 1 -1 12 22 25 53
20 48 40 72 40 46 0 -33 -38 -212 -76 -360 -35 -136 -50 -218 -64 -361 -22
-207 -14 -169 -179 -935 -145 -672 -133 -614 -122 -595 4 8 29 87 55 175 67
228 156 494 168 501 12 7 9 -13 -42 -323 -22 -128 -61 -326 -89 -440 -27 -114
-82 -363 -121 -553 -135 -656 -176 -820 -226 -891 -24 -35 -50 -46 -38 -16 4
13 -48 22 -224 43 -29 3 -59 12 -66 20 -12 12 -19 7 -44 -34 -16 -26 -55 -95
-86 -155 -47 -89 -56 -116 -56 -158 0 -48 3 -54 47 -95 69 -63 207 -128 346
-164 65 -16 129 -30 141 -30 28 0 39 -13 56 -65 8 -25 36 -63 76 -103 145
-145 376 -196 590 -131 91 27 139 56 194 116 l45 49 95 -2 c52 -1 127 -4 167
-8 67 -7 71 -7 78 13 3 12 12 21 18 21 7 0 30 26 52 58 37 52 40 64 45 137 l5
80 4384 3 c3233 1 4387 -1 4397 -9 10 -8 14 -38 14 -104 l0 -92 58 -69 58 -69
204 -5 205 -5 40 -32 c65 -51 98 -56 326 -49 254 7 271 9 311 34 58 36 118
107 143 167 13 32 29 61 37 65 7 4 47 15 88 24 118 26 283 77 301 92 8 8 20
14 25 14 5 0 20 7 32 16 23 16 23 16 -35 51 -173 104 -320 248 -385 378 -39
77 -201 709 -267 1040 -48 245 -172 1029 -170 1083 1 30 69 -166 152 -433 28
-93 53 -162 55 -152 2 9 -37 218 -87 464 -88 434 -131 668 -131 702 0 10 6 7
18 -12 14 -23 23 -27 55 -25 l38 3 -6 45 c-3 25 -45 239 -92 475 -47 237 -85
450 -85 474 2 47 -70 452 -139 786 -41 201 -53 314 -53 520 l-1 100 42 64 c50
75 75 138 97 246 9 44 22 105 28 135 14 66 12 445 -3 675 -6 88 -22 234 -36
325 -14 91 -28 215 -33 275 -4 61 -13 150 -21 198 -11 74 -11 90 0 96 11 7 9
29 -13 117 -15 60 -36 130 -46 156 -19 44 -20 72 -20 483 l0 435 -26 10 c-31
12 -546 13 -560 1 -5 -4 -31 -16 -57 -26 -26 -10 -53 -27 -59 -38 -6 -13 -8
-60 -3 -137 10 -170 21 -160 -184 -160 l-168 0 -24 37 c-30 46 -52 52 -203 58
l-118 5 6 -25 c7 -29 -13 -35 -34 -10 -19 23 -40 18 -99 -22 l-55 -38 -542 -3
-542 -2 -19 24 c-10 13 -22 31 -28 39 -8 12 -39 16 -148 19 -94 3 -134 1 -127
-6 17 -17 11 -26 -19 -26 -16 0 -34 7 -41 15 -7 8 -23 15 -35 15 -22 0 -76
-37 -100 -68 -8 -10 -149 -12 -680 -10 l-669 3 -8 41 -9 41 -67 6 c-37 3 -124
6 -195 7 -127 1 -127 1 -136 -24 -6 -13 -19 -27 -29 -30 -11 -4 -27 -15 -37
-26 -25 -28 -80 -26 -149 6 -39 18 -56 31 -52 40 14 35 -89 47 -214 25 -30 -6
-71 -8 -91 -5 -30 5 -39 2 -53 -17 -9 -13 -16 -31 -16 -40 0 -9 -10 -19 -22
-23 -13 -3 -327 -6 -698 -6 l-674 0 -31 29 c-38 37 -77 48 -94 27 -19 -23 -34
-20 -26 5 7 21 7 21 -146 14 l-154 -7 -31 -34 -32 -34 -554 0 -555 0 -46 35
c-51 39 -62 42 -71 20 -5 -15 -57 -21 -70 -8 -4 4 3 15 16 25 23 18 22 19 -47
15 -38 -2 -78 -7 -87 -11 -13 -6 -18 -4 -18 8 0 12 -9 16 -34 16 -19 0 -38 -4
-41 -10 -3 -5 -17 -10 -30 -10 -15 0 -36 -14 -58 -40 l-34 -40 -174 2 -174 3
-5 175 -5 175 -67 25 c-37 15 -71 29 -74 33 -4 4 -130 7 -281 7 l-273 0 0
-466z m4700 91 c0 -27 -6 -30 -29 -16 -12 8 -12 12 -2 25 19 23 31 20 31 -9z
m-3917 -932 c-6 -94 -22 -181 -45 -241 -20 -53 -22 -55 -30 -32 -14 36 -1 172
24 243 35 104 57 116 51 30z m317 -11 l55 -27 -2 -138 c-1 -77 0 -137 2 -135
1 1 26 48 55 103 68 130 63 125 105 112 61 -18 66 -30 49 -124 -19 -111 -65
-253 -130 -400 -30 -67 -54 -125 -54 -128 0 -28 206 275 315 463 33 56 54 82
66 82 21 0 24 -12 9 -41 -14 -25 -2 -24 25 1 18 17 25 18 53 8 18 -7 32 -18
32 -25 0 -7 -21 -46 -46 -88 -48 -80 -54 -102 -14 -60 13 14 27 25 30 25 15 0
20 -66 14 -159 l-6 -96 -180 -175 c-99 -96 -176 -176 -170 -178 10 -3 74 34
226 132 48 31 91 54 95 52 4 -3 2 -43 -4 -88 -7 -46 -18 -146 -25 -223 -7 -77
-17 -146 -24 -154 -8 -11 -8 -15 2 -18 7 -3 12 -22 12 -49 0 -47 4 -43 -95
-100 -60 -34 -40 -44 30 -14 31 13 52 17 58 11 19 -19 -3 -39 -55 -51 -129
-28 -153 -29 -214 -11 -32 10 -60 23 -61 28 -2 6 13 30 33 54 92 110 262 355
252 364 -2 2 -62 -32 -133 -76 -176 -109 -398 -220 -411 -206 -3 2 2 36 11 76
61 293 73 384 66 501 l-6 95 -64 -165 c-78 -201 -164 -400 -197 -457 -23 -39
-26 -42 -49 -31 -42 19 -37 60 43 368 22 85 53 187 67 225 15 39 33 104 41
145 15 82 18 243 4 200 -4 -14 -22 -70 -39 -125 -37 -119 -110 -270 -131 -270
-19 0 -29 55 -29 169 l-1 88 66 112 c37 61 94 163 127 226 71 135 113 200 130
200 7 0 37 -13 67 -28z m3789 -491 c12 -16 21 -36 21 -45 0 -10 6 -13 15 -10
20 8 45 -13 45 -38 0 -13 5 -18 14 -15 8 3 20 -1 26 -9 18 -20 67 -17 118 7
l44 22 89 -93 c50 -51 92 -90 95 -88 2 3 -13 42 -36 86 -22 45 -40 83 -40 86
0 16 111 -42 205 -106 105 -72 165 -108 181 -108 4 0 -25 33 -64 74 -40 41
-72 79 -72 85 0 6 33 -10 73 -37 98 -66 410 -235 598 -323 164 -76 396 -179
405 -179 16 0 -13 26 -127 118 -70 55 -130 105 -134 112 -10 16 59 -14 127
-55 31 -19 62 -35 70 -35 7 -1 78 -43 158 -95 80 -52 194 -122 255 -156 74
-42 144 -93 215 -156 58 -52 150 -124 205 -161 l100 -67 -56 -3 c-69 -4 -233
29 -354 70 -92 31 -461 191 -747 324 -221 103 -221 94 2 -41 392 -237 738
-385 1046 -449 93 -19 207 -48 254 -65 96 -33 178 -56 231 -65 32 -6 38 -11
43 -39 3 -17 2 -57 -3 -87 -6 -45 -15 -62 -49 -98 -23 -24 -42 -52 -42 -62 0
-11 18 -38 40 -60 l39 -39 -29 -377 c-28 -349 -32 -457 -14 -337 4 26 10 57
15 68 13 34 10 -81 -11 -380 -20 -292 -26 -521 -11 -495 4 8 17 67 27 130 l19
115 6 -245 c10 -386 10 -730 0 -730 -27 0 -34 33 -29 160 3 71 1 135 -3 142
-5 7 -9 9 -9 3 -1 -31 -38 -246 -43 -252 -4 -3 -12 -1 -19 5 -23 18 -183 52
-249 52 -89 0 -97 7 -70 62 26 55 28 145 5 320 -10 77 -14 162 -12 228 4 93
10 118 47 217 52 137 51 160 -7 190 -64 32 -149 37 -300 19 -231 -28 -330 -23
-627 34 -437 84 -493 86 -530 17 -11 -21 -26 -36 -35 -35 -45 9 -51 284 -10
436 l23 84 -22 42 c-11 24 -21 48 -21 54 0 18 -49 50 -88 56 -58 10 -168 -8
-485 -79 -161 -35 -333 -69 -382 -74 -100 -10 -249 -1 -420 25 -175 26 -293 9
-357 -53 -38 -36 -36 -69 12 -204 41 -114 77 -286 66 -314 -9 -23 -22 -18 -36
15 -27 66 -93 64 -503 -11 -332 -61 -420 -67 -631 -44 -241 27 -351 13 -391
-49 -15 -22 -13 -30 25 -124 22 -55 45 -124 50 -153 14 -73 12 -197 -5 -314
-20 -136 -19 -267 1 -306 8 -17 13 -36 11 -43 -3 -7 -42 -18 -94 -25 -108 -15
-191 -35 -263 -65 -52 -22 -106 -42 -140 -52 -13 -4 -20 22 -39 141 -35 221
-39 222 -42 10 -3 -189 -3 -189 -10 95 -10 445 -10 793 1 810 8 12 10 10 11
-10 0 -14 5 -34 10 -45 11 -24 3 351 -12 517 -5 62 -14 261 -19 443 l-9 330
28 25 c28 24 51 59 51 77 0 5 -18 30 -40 57 -36 43 -40 54 -39 100 2 94 5 98
94 121 44 12 112 33 150 47 39 14 108 33 155 43 47 9 173 38 280 65 107 27
218 52 245 55 180 25 372 81 528 153 106 49 122 67 30 34 -69 -25 -245 -73
-250 -68 -2 2 67 50 154 106 211 137 345 231 340 237 -3 2 -76 -27 -164 -65
-87 -38 -189 -81 -228 -95 -120 -45 -463 -132 -474 -121 -8 8 132 145 169 164
42 22 82 63 104 107 21 41 55 67 141 107 38 18 113 62 165 98 118 81 130 88
105 59 -11 -13 -76 -63 -145 -113 -148 -107 -135 -97 -128 -103 6 -7 436 193
679 316 97 49 223 120 280 157 57 38 140 91 184 119 44 27 109 70 144 96 35
26 67 47 71 47 5 0 18 -13 29 -29z m3738 -130 c16 -22 63 -93 105 -158 43 -65
109 -158 148 -206 38 -47 70 -89 70 -91 0 -3 -24 11 -52 31 -59 39 -287 153
-308 153 -9 0 -4 -11 12 -27 48 -52 75 -128 33 -93 -33 27 -20 2 34 -69 39
-51 67 -77 91 -86 19 -7 87 -35 150 -62 160 -69 282 -113 313 -113 15 0 34
-11 49 -28 12 -15 59 -55 103 -88 l80 -60 3 -72 c2 -40 -1 -72 -5 -72 -18 1
-175 92 -263 153 -52 37 -146 110 -209 162 -112 93 -154 117 -131 75 16 -29
155 -202 248 -308 75 -85 97 -122 73 -122 -21 0 -246 107 -365 174 -72 41
-163 90 -203 110 -68 34 -91 51 -80 62 3 3 108 -44 233 -104 126 -60 248 -117
271 -126 58 -25 77 -15 29 15 -92 57 -516 342 -522 350 -9 15 -68 598 -61 605
2 2 43 -43 93 -100 49 -58 95 -107 102 -110 13 -6 8 9 -46 124 -55 116 -52
162 5 81z m741 -327 c24 -66 52 -144 63 -174 15 -39 23 -90 26 -172 3 -65 3
-118 0 -118 -13 0 -281 382 -294 418 -3 9 -23 40 -44 68 -32 44 -79 152 -79
182 0 5 64 -12 142 -38 l143 -47 43 -119z m-755 -573 c45 -38 136 -104 202
-147 113 -74 118 -79 88 -82 -42 -4 -249 24 -343 46 -73 17 -75 19 -74 47 1
35 35 205 41 205 2 0 41 -31 86 -69z m-1003 -99 c25 -11 40 -21 33 -21 -15 -1
-123 46 -123 53 0 6 23 -2 90 -32z m1179 -262 c134 -28 280 -65 324 -82 149
-56 213 -76 270 -83 88 -11 90 -14 95 -148 l4 -116 -56 -62 c-31 -34 -56 -71
-56 -81 0 -31 51 -109 76 -119 21 -8 24 -15 24 -66 0 -74 -34 -554 -61 -866
-11 -130 -19 -243 -17 -249 3 -7 15 39 27 102 25 126 40 167 41 110 0 -19 -9
-152 -19 -295 -20 -272 -26 -387 -37 -722 -5 -137 -3 -203 4 -203 10 0 13 12
34 150 l13 85 6 -235 c10 -389 10 -600 -1 -600 -5 0 -10 17 -11 38 0 34 -1 35
-10 12 -14 -35 -13 -35 -64 0 -25 17 -67 41 -93 52 -82 36 -412 282 -412 307
0 41 -54 129 -112 183 -58 55 -62 62 -74 126 -24 126 -93 566 -99 632 -6 61
-5 63 8 35 8 -16 35 -97 61 -180 78 -247 78 -224 -8 211 -41 208 -76 405 -76
428 0 5 6 3 14 -3 21 -18 46 -2 46 28 0 15 -27 162 -60 326 -33 164 -60 319
-60 344 0 47 -51 330 -102 566 -16 77 -29 167 -29 200 1 35 -5 72 -14 89 -8
15 -15 44 -15 64 0 29 8 43 40 73 l40 37 58 -18 c32 -10 168 -41 301 -70z
m-7087 49 c7 -11 28 -27 46 -36 19 -9 41 -27 50 -41 15 -23 15 -25 -8 -44 -22
-18 -25 -28 -26 -101 -1 -48 -13 -130 -28 -197 -15 -63 -42 -189 -61 -280 -20
-91 -37 -174 -40 -185 -3 -15 1 -13 21 10 l25 30 -5 -55 c-6 -50 -5 -53 8 -31
34 60 24 -28 -28 -239 -15 -58 -33 -163 -41 -235 -21 -173 -16 -147 -111 -585
-47 -211 -83 -391 -82 -399 2 -8 30 70 62 172 58 183 84 234 71 140 -15 -105
-65 -365 -94 -483 -16 -69 -55 -246 -86 -395 -30 -148 -58 -278 -61 -288 -3
-9 -74 -62 -157 -117 -89 -59 -162 -114 -177 -135 -14 -19 -33 -37 -43 -41
-11 -3 -43 -28 -72 -54 -30 -27 -63 -53 -74 -59 -17 -9 -20 -7 -25 17 -3 15
-11 54 -18 87 l-13 60 -5 -104 c-3 -71 -9 -106 -17 -109 -10 -3 -13 131 -13
647 0 372 4 651 9 651 5 0 14 -46 21 -102 7 -57 16 -123 21 -148 14 -79 1 616
-15 800 -30 345 -52 1086 -32 1118 4 7 16 12 27 12 22 0 79 81 79 112 0 10
-27 48 -60 83 l-60 64 1 73 c0 40 3 91 7 113 l7 40 80 16 c92 19 143 34 275
82 53 19 152 47 220 61 69 15 186 42 260 60 74 19 138 34 142 35 4 1 13 -8 20
-20z m48 -719 c0 -11 -7 -20 -15 -20 -17 0 -18 2 -9 24 9 23 24 20 24 -4z
m110 -93 c0 -56 -7 -129 -14 -162 -8 -33 -17 -127 -20 -210 -4 -125 -3 -140 5
-87 7 39 15 60 21 56 17 -11 3 -380 -22 -604 -21 -179 -21 -210 -11 -380 6
-102 16 -219 22 -260 5 -41 9 -144 7 -229 l-3 -154 -95 -38 c-52 -21 -98 -39
-103 -39 -4 0 -5 37 -1 83 7 101 -6 89 -37 -35 -11 -48 -25 -88 -30 -88 -11 0
-12 -8 5 108 8 53 49 394 91 757 42 363 96 823 120 1022 25 200 45 365 45 369
0 3 5 2 10 -1 6 -3 10 -51 10 -108z m-1870 -332 c0 -8 -4 -15 -10 -15 -5 0
-10 7 -10 15 0 8 5 15 10 15 6 0 10 -7 10 -15z m8409 -760 c1 -23 -2 -26 -9
-15 -7 11 -10 2 -10 -32 0 -49 52 -615 70 -757 6 -46 7 -87 3 -91 -4 -4 -27
-3 -50 2 l-43 9 0 348 c0 191 3 431 7 532 l7 184 12 -75 c7 -41 13 -88 13
-105z m18 -137 c-3 -7 -5 -2 -5 12 0 14 2 19 5 13 2 -7 2 -19 0 -25z m10 -85
c-3 -10 -5 -2 -5 17 0 19 2 27 5 18 2 -10 2 -26 0 -35z m53 -361 c38 -294 42
-347 24 -330 -6 7 -74 607 -73 648 1 48 8 3 49 -318z m-8494 -1329 c-8 -1324
-12 -1541 -30 -1480 -5 15 -11 27 -15 27 -3 0 -46 5 -94 10 -86 10 -89 10
-108 -12 l-20 -23 5 25 c3 14 12 69 21 123 8 55 20 118 25 140 5 23 14 80 19
127 14 108 81 827 81 860 0 55 -21 -12 -82 -262 -34 -142 -63 -256 -65 -254
-1 1 13 108 31 237 19 129 75 585 125 1014 93 795 98 835 108 835 4 0 3 -615
-1 -1367z m10324 357 c78 -617 93 -713 211 -1418 54 -326 103 -644 109 -705
12 -135 13 -357 2 -357 -4 0 -13 5 -20 12 -6 6 -13 10 -14 7 -2 -2 -10 -17
-18 -34 -17 -32 -50 -42 -97 -30 -36 9 -128 99 -175 172 -23 35 -42 62 -44 60
-2 -2 1 -20 7 -40 14 -52 8 -111 -12 -115 -9 -2 -28 13 -43 32 l-26 35 2 263
3 263 24 -75 c40 -130 114 -325 118 -313 3 7 -29 153 -69 325 l-73 313 -3 966
c-1 531 1 983 6 1005 6 32 10 12 21 -111 22 -268 70 -737 86 -845 28 -186 119
-686 123 -669 1 9 -13 151 -32 315 -20 164 -63 538 -96 830 -33 292 -67 580
-75 640 -9 60 -17 145 -20 189 -6 118 32 -140 105 -715z m-10657 -1639 c-13
-152 -19 -189 -29 -179 -12 13 -11 19 32 331 14 103 13 32 -3 -152z"/>
<path d="M6100 7398 c-127 -118 -231 -204 -371 -306 -214 -155 -189 -155 64 0
102 63 153 102 222 172 87 88 182 203 174 210 -2 2 -42 -32 -89 -76z"/>
<path d="M7260 7026 c0 -7 175 -135 234 -170 69 -42 145 -67 283 -96 106 -23
150 -22 98 0 -16 7 -109 50 -205 96 -157 73 -391 174 -405 174 -3 0 -5 -2 -5
-4z"/>
<path d="M11840 3650 c0 -5 5 -10 10 -10 6 0 10 5 10 10 0 6 -4 10 -10 10 -5
0 -10 -4 -10 -10z"/>
<path d="M12576 904 c20 -32 62 -95 93 -138 l56 -79 3 33 c6 62 -7 98 -46 127
-20 15 -61 47 -90 72 l-54 44 38 -59z"/>
</g>
</svg>
